<svg version="1.1" id="Layer_1" xmlns="http://www.w3.org/2000/svg" xmlns:xlink="http://www.w3.org/1999/xlink" x="0px" y="0px"
	 width="100%" viewBox="0 0 1200 1200" enable-background="new 0 0 1200 1200" xml:space="preserve">
<path fill="#000000" opacity="1.000000" stroke="none" 
	d="
M671.000000,1201.000000 
	C447.333344,1201.000000 224.166672,1201.000000 1.000000,1201.000000 
	C1.000000,801.000000 1.000000,401.000000 1.000000,1.000000 
	C401.000000,1.000000 801.000000,1.000000 1201.000000,1.000000 
	C1201.000000,401.000000 1201.000000,801.000000 1201.000000,1201.000000 
	C1024.500000,1201.000000 848.000000,1201.000000 671.000000,1201.000000 
M156.457916,571.043030 
	C156.255753,571.309631 156.053574,571.576233 155.355118,572.021057 
	C155.221924,572.331787 155.088730,572.642578 154.262543,572.963623 
	C145.828354,581.190369 137.394150,589.417114 128.959946,597.643860 
	C129.520035,598.188660 130.080124,598.733398 130.640228,599.278137 
	C138.619171,591.159973 146.608368,583.051758 154.546204,574.893555 
	C154.935776,574.493103 154.876892,573.656250 155.502487,572.862488 
	C155.689301,572.593018 155.876114,572.323486 156.505676,571.836487 
	C156.787170,571.631409 156.957809,571.357300 157.477753,570.842590 
	C157.762909,570.654114 157.957840,570.397217 158.663651,569.782043 
	C161.445724,566.524048 164.227798,563.266113 167.492477,559.850220 
	C167.665192,559.569702 167.837921,559.289246 168.492691,558.859680 
	C168.672302,558.585327 168.851898,558.310974 169.495377,557.857056 
	C169.783966,557.660095 169.966522,557.391174 170.501373,556.860901 
	C170.785919,556.661987 170.968292,556.393677 171.496536,555.854431 
	C171.773026,555.655396 171.960175,555.392700 172.662582,554.779907 
	C174.438217,552.517090 176.213852,550.254333 178.480515,547.848572 
	C178.655273,547.567688 178.830017,547.286743 179.475403,546.825134 
	C179.646591,546.545410 179.817780,546.265686 180.460663,545.828369 
	C180.756699,545.641907 180.947647,545.379150 181.645477,544.772705 
	C184.430099,541.515137 187.214722,538.257568 190.483948,534.852356 
	C190.663025,534.576599 190.842102,534.300903 191.508499,533.868164 
	C191.675690,533.582703 191.842865,533.297241 192.475479,532.830566 
	C192.767700,532.632507 192.946060,532.359924 193.626740,531.736694 
	C194.410324,530.485352 195.193893,529.233948 196.466995,527.831543 
	C196.640533,527.549072 196.814087,527.266663 197.470444,526.833679 
	C197.651428,526.559509 197.832413,526.285278 198.420441,525.902893 
	C198.401245,525.702759 198.382050,525.502686 198.362869,525.302551 
	C198.236359,525.528870 198.109833,525.755127 197.476379,526.119019 
	C197.323944,526.417969 197.171509,526.716919 196.497253,527.121582 
	C196.338547,527.422913 196.179840,527.724243 195.321991,528.075500 
	C194.540024,529.376465 193.758057,530.677429 192.451874,532.073364 
	C192.295471,532.376953 192.139069,532.680542 191.448090,533.057251 
	C191.285461,533.359619 191.122849,533.662048 190.443146,534.081787 
	C190.295746,534.387878 190.148346,534.693909 189.309265,535.008728 
	C186.511948,538.314575 183.714645,541.620483 180.426163,545.094482 
	C180.290207,545.401550 180.154251,545.708679 179.490967,546.105042 
	C179.324478,546.400879 179.158005,546.696777 178.463257,547.086609 
	C178.312500,547.395203 178.161743,547.703735 177.320526,548.043457 
	C175.492828,550.309692 173.665131,552.575867 171.370697,555.026611 
	C171.202271,555.307678 171.033859,555.588806 170.380692,556.029297 
	C170.218094,556.319458 170.055496,556.609680 169.398071,557.052063 
	C169.244247,557.348694 169.090439,557.645386 168.424286,558.066467 
	C168.278244,558.372559 168.132187,558.678650 167.459457,559.080261 
	C167.301956,559.381958 167.144455,559.683655 166.295181,559.996033 
	C163.471298,563.275452 160.647415,566.554810 157.369019,570.062195 
	C157.236115,570.363953 157.103210,570.665710 156.457916,571.043030 
M331.455017,690.055481 
	C331.288147,690.353882 331.121246,690.652283 330.397949,690.886230 
	C330.132935,691.034180 329.867920,691.182190 329.602905,691.330139 
	C329.742706,691.511841 329.882538,691.693604 330.022369,691.875305 
	C330.356781,691.590637 330.691193,691.305969 331.499359,690.847229 
	C331.667786,690.565979 331.836182,690.284729 332.359314,689.863647 
	C332.334229,689.689880 332.309143,689.516052 332.284027,689.342285 
	C332.186951,689.558899 332.089874,689.775513 331.455017,690.055481 
M926.584473,574.821106 
	C926.626648,574.403015 926.668823,573.984863 926.711060,573.566772 
	C926.469360,574.040955 926.227661,574.515137 925.469543,575.234009 
	C925.189270,575.721802 924.908997,576.209656 923.985352,576.905945 
	C922.980957,577.984985 921.821838,578.957764 920.995911,580.159485 
	C912.213867,592.937439 907.388550,607.003174 905.773254,622.510986 
	C903.980347,639.723389 905.123047,656.567749 911.527466,672.517334 
	C920.079895,693.816223 935.489258,707.800232 958.052185,714.381897 
	C971.325317,718.253662 984.556702,718.067627 997.935547,717.945251 
	C1012.438843,717.812622 1026.168335,713.915283 1039.421509,708.247375 
	C1042.013428,707.138977 1043.886597,705.448853 1042.390381,702.229614 
	C1041.650146,702.229614 1041.104980,702.087646 1040.674561,702.249939 
	C1021.553650,709.461670 1001.816711,712.168945 981.496704,710.041687 
	C963.942078,708.203918 947.604309,703.093750 934.716492,690.295410 
	C913.017700,668.747070 909.846680,641.611511 912.593262,613.121155 
	C913.830566,600.285645 918.888794,588.410400 925.651367,576.758423 
	C925.778198,576.181702 925.905029,575.604919 926.584473,574.821106 
M686.366638,664.256287 
	C676.314331,674.646484 674.415771,686.885315 679.672119,699.842285 
	C683.908142,710.283936 692.102051,717.153320 703.687195,717.875366 
	C719.229370,718.843994 729.254883,713.899170 734.188477,703.844116 
	C732.182068,704.901428 730.438171,705.808411 728.705200,706.735718 
	C718.382019,712.259216 707.961670,712.316345 697.983826,706.298462 
	C687.869629,700.198303 683.211426,690.737976 684.044250,679.001343 
	C684.402039,673.959534 685.984863,669.004639 687.386230,663.984131 
	C687.255859,663.987427 687.125427,663.990662 686.366638,664.256287 
M96.213181,577.712036 
	C92.780418,581.214172 89.347656,584.716309 84.838318,589.316772 
	C84.838318,562.854858 84.838318,538.014832 84.838318,512.924744 
	C73.202148,512.924744 62.142906,512.924744 51.088047,512.924744 
	C50.906670,513.769287 50.718372,514.237061 50.718163,514.704956 
	C50.690742,574.841736 50.693832,634.978577 50.616985,695.115295 
	C50.612843,698.358398 52.029602,698.963074 54.888458,698.912109 
	C63.215057,698.763672 71.552399,698.666504 79.872475,698.942505 
	C83.881241,699.075500 84.981400,697.757385 84.954323,693.805237 
	C84.786575,669.318359 84.863876,644.829834 84.880508,620.341858 
	C84.881447,618.970276 85.066132,617.598755 85.214172,615.551086 
	C87.585510,617.295715 89.343826,618.508850 91.015579,619.831421 
	C117.756821,640.987183 139.913773,666.354126 159.185181,694.334717 
	C161.226501,697.298645 163.178635,699.134338 167.150894,698.959534 
	C174.965256,698.615723 182.805420,698.858093 190.634903,698.857910 
	C194.182663,698.857849 197.730423,698.857910 202.490662,698.857910 
	C178.236725,660.586731 150.386429,627.229004 116.424553,599.366394 
	C143.380066,570.663452 169.987595,542.330994 197.544800,512.987305 
	C194.377487,512.771851 192.929901,512.591492 191.481934,512.588135 
	C181.986694,512.566101 172.476501,512.900269 163.002060,512.457642 
	C157.949234,512.221619 154.787445,514.102478 151.523590,517.693665 
	C133.384628,537.652161 115.005768,557.392578 96.213181,577.712036 
M306.661438,649.708069 
	C304.724518,660.678101 297.956421,667.410828 287.711090,670.833374 
	C276.227234,674.669739 264.375610,675.001221 252.660446,672.614075 
	C243.504852,670.748535 234.595993,667.672180 225.055908,664.987061 
	C223.442993,672.359802 221.965210,680.176147 219.952454,687.852234 
	C218.996140,691.499390 220.059784,693.087341 223.440277,693.927368 
	C230.853638,695.769409 238.177582,698.025940 245.651962,699.557190 
	C264.556915,703.429993 283.300446,703.064941 301.852509,697.074341 
	C349.730255,681.614319 348.321960,622.738647 321.902954,601.150024 
	C309.176971,590.750854 294.228607,586.325317 278.399353,584.013489 
	C273.043823,583.231323 267.656036,582.670166 262.524048,582.037781 
	C263.652283,568.050171 264.731171,554.674316 265.840363,540.922974 
	C288.379456,540.922974 310.498169,540.922974 332.884766,540.922974 
	C332.884766,531.299500 332.884766,522.098633 332.884766,512.936646 
	C301.079224,512.936646 269.661774,512.936646 238.344757,512.936646 
	C235.995056,545.066956 233.673050,576.818420 231.317856,609.023804 
	C234.210754,609.023804 236.876099,608.764893 239.476166,609.067261 
	C252.832657,610.620728 266.361969,611.417786 279.473450,614.177429 
	C299.028473,618.293335 307.528809,629.943237 306.661438,649.708069 
M1027.559082,568.936951 
	C1018.731201,560.671082 1008.052002,556.671631 996.266724,554.768555 
	C969.903809,550.511475 943.262024,563.116882 930.347046,586.400330 
	C919.114868,606.650024 917.841431,628.401672 922.518616,650.400391 
	C927.920349,675.807312 943.270508,692.625000 968.939026,699.172974 
	C989.033325,704.298950 1008.875244,702.239258 1028.625244,697.106934 
	C1037.930298,694.688904 1038.088989,694.739014 1036.843750,685.480347 
	C1036.040039,679.504028 1034.749512,673.593201 1033.646606,667.483887 
	C1015.775208,673.090698 998.592957,676.030640 980.772949,672.048401 
	C965.489319,668.632996 954.165405,654.955322 954.201294,638.949829 
	C955.984009,638.949829 957.779541,638.949768 959.575073,638.949768 
	C987.062439,638.949951 1014.550354,638.862793 1042.036499,639.046204 
	C1046.083984,639.073181 1047.275024,637.849365 1047.085571,633.958923 
	C1046.794067,627.975220 1047.339722,621.937988 1046.852417,615.978943 
	C1045.427734,598.558899 1041.166748,582.177795 1027.559082,568.936951 
M798.538391,556.078308 
	C791.060059,557.672424 783.614929,559.454285 776.090515,560.788391 
	C771.760986,561.556091 770.148193,563.309937 770.170898,567.991882 
	C770.371338,609.313171 770.286865,650.635925 770.287231,691.958191 
	C770.287231,693.291138 769.957397,694.748962 770.392700,695.921509 
	C770.815735,697.060913 772.009766,698.737976 772.894104,698.755859 
	C782.819275,698.957031 792.750000,698.882996 803.103333,698.882996 
	C803.103333,660.275818 803.103333,622.358948 803.103333,583.355103 
	C813.100830,583.157471 822.745178,582.243591 832.266113,582.962769 
	C844.006592,583.849670 850.523804,589.767639 852.935608,601.268616 
	C854.596680,609.189209 855.425720,617.404480 855.548462,625.504456 
	C855.889343,647.993347 855.666748,670.490662 855.666748,692.984680 
	C855.666748,694.778320 855.666748,696.571960 855.666748,698.461670 
	C866.720703,698.461670 877.243347,698.461670 887.985474,698.461670 
	C887.985474,672.388367 888.150391,646.739807 887.891846,621.095520 
	C887.806641,612.641113 887.035767,604.140686 885.867249,595.760498 
	C882.979187,575.050537 867.361755,559.699036 846.682007,555.822083 
	C830.848145,552.853638 815.164124,554.243591 798.538391,556.078308 
M486.790985,512.936401 
	C480.460236,525.339783 474.400665,537.891235 467.729126,550.108459 
	C459.640015,564.921753 451.033997,579.452759 442.235992,594.832458 
	C440.841949,592.981018 439.825714,591.936768 439.160889,590.703186 
	C425.922424,566.139404 412.649963,541.593140 399.608612,516.924805 
	C397.892365,513.678406 396.092346,512.404053 392.397583,512.493958 
	C382.075562,512.745300 371.742920,512.548340 361.414581,512.572083 
	C360.326324,512.574585 359.238708,512.867493 356.457092,513.271851 
	C378.413055,550.054260 399.910309,585.977112 421.241516,621.998230 
	C422.752747,624.550171 423.722809,627.812073 423.782288,630.767273 
	C424.050293,644.088989 423.823639,657.419800 423.925323,670.746216 
	C423.994873,679.859680 424.311584,688.971191 424.517792,698.083618 
	C433.767578,698.341858 443.016815,698.622070 452.267578,698.839050 
	C454.042358,698.880676 455.822937,698.673584 458.030609,698.558899 
	C458.030609,696.297852 458.030609,694.497375 458.030609,692.696899 
	C458.030426,671.873169 457.941833,651.048706 458.135010,630.226746 
	C458.160980,627.426941 459.048248,624.307251 460.482727,621.899231 
	C474.265961,598.761475 488.421051,575.844421 502.114075,552.654114 
	C509.697632,539.810730 516.605530,526.568420 523.866028,513.419006 
	C522.944824,513.037903 522.488647,512.685486 522.031250,512.683960 
	C510.539642,512.644775 499.047882,512.642517 486.790985,512.936401 
M597.500000,540.901184 
	C606.379456,540.901184 615.258911,540.901184 624.544861,540.901184 
	C592.441467,589.385315 573.054993,641.475281 566.303650,698.544006 
	C578.225159,698.544006 588.962524,698.544006 598.331726,698.544006 
	C602.287659,680.096619 605.186462,661.992065 610.130859,644.464600 
	C620.868347,606.401489 637.247620,570.917114 661.944214,539.648071 
	C662.752808,538.624207 663.899536,537.431335 663.925232,536.295410 
	C664.100281,528.554932 664.016907,520.808533 664.016907,512.922180 
	C622.118286,512.922180 580.874573,512.922180 539.731628,512.922180 
	C539.731628,522.367371 539.731628,531.451294 539.731628,540.901184 
	C558.898376,540.901184 577.699219,540.901184 597.500000,540.901184 
M1122.402222,670.336365 
	C1120.060425,667.204773 1116.820923,664.386292 1115.593140,660.866150 
	C1113.873779,655.937195 1112.993896,650.496277 1112.909058,645.255676 
	C1112.601685,626.275452 1112.769531,607.287537 1112.784790,588.302490 
	C1112.785889,587.021790 1113.007935,585.741150 1113.180298,583.889282 
	C1129.805786,583.889282 1146.173950,583.889282 1162.614502,583.889282 
	C1162.614502,574.856873 1162.614502,566.429749 1162.614502,557.357300 
	C1146.038086,557.357300 1129.657959,557.357300 1112.545410,557.357300 
	C1112.545410,543.230652 1112.545410,529.734192 1112.545410,515.851501 
	C1101.287231,517.616089 1090.823608,519.256104 1079.969116,520.957397 
	C1079.969116,523.210876 1079.968994,525.020813 1079.968994,526.830750 
	C1079.968994,546.148926 1079.838745,565.468262 1080.001953,584.785034 
	C1080.208862,609.255188 1079.983643,633.757324 1081.220093,658.181091 
	C1082.126221,676.078552 1089.098999,691.517151 1107.553101,698.093872 
	C1127.950928,705.363403 1148.081177,702.725098 1168.407227,694.578430 
	C1166.961060,687.709778 1165.136475,681.127319 1164.306885,674.421753 
	C1163.680420,669.358765 1161.785400,668.518066 1157.591187,670.566223 
	C1156.706543,670.998230 1155.703247,671.218384 1154.732178,671.437744 
	C1144.108154,673.838013 1133.484863,675.965332 1122.402222,670.336365 
M400.825592,605.649292 
	C399.869171,604.089966 398.867462,602.556458 397.963074,600.967590 
	C381.350922,571.782593 364.751923,542.590088 348.144440,513.402405 
	C346.897552,511.210999 346.282593,508.054932 342.278595,509.562378 
	C341.735565,515.336609 341.486847,520.892334 344.622894,526.360474 
	C353.018555,540.999512 360.796051,555.996460 369.326935,570.553589 
	C381.336029,591.045898 393.827911,611.254944 406.029114,631.635498 
	C407.074738,633.382019 408.098236,635.503845 408.105255,637.454956 
	C408.189270,660.773438 408.036041,684.092651 408.080811,707.411438 
	C408.085663,709.934509 408.942596,712.455933 409.408478,715.000793 
	C425.698792,715.000793 441.357025,714.959351 457.014648,715.036133 
	C460.109985,715.051270 462.143860,714.575195 462.064331,710.744507 
	C461.984131,706.880859 459.514465,707.100464 456.946442,707.101257 
	C444.950562,707.105225 432.949829,706.907471 420.961182,707.202026 
	C416.322662,707.316040 414.949890,705.848755 414.992889,701.242554 
	C415.199615,679.085388 414.974121,656.924194 415.177826,634.767029 
	C415.219635,630.220398 414.243347,626.334778 411.749817,622.622009 
	C408.133453,617.237488 404.685211,611.739990 400.825592,605.649292 
M570.500549,715.007202 
	C579.830200,715.008545 589.162476,714.882629 598.488098,715.077087 
	C601.963257,715.149597 603.913574,714.109436 603.985352,710.489807 
	C604.064209,706.514709 601.105164,707.116760 598.689148,707.109619 
	C586.694031,707.074158 574.698730,707.104065 562.703491,707.082886 
	C560.950989,707.079834 559.198730,706.925964 557.255676,706.832703 
	C561.499634,650.183777 580.407776,598.795776 608.331055,549.111938 
	C604.662231,549.111938 602.863403,549.111938 601.064575,549.111938 
	C579.906311,549.112000 558.748047,549.112061 537.589783,549.112061 
	C530.874207,549.112000 530.871887,549.111877 530.869202,542.345703 
	C530.866394,535.182251 530.868591,528.018860 530.868591,519.716980 
	C523.507080,530.234924 521.943176,540.316895 524.609558,557.143921 
	C549.547119,557.143921 574.583252,557.143921 600.331238,557.143921 
	C599.588867,558.875427 599.257324,559.913696 598.728149,560.838928 
	C595.932861,565.725891 592.798035,570.441284 590.309753,575.477417 
	C579.136475,598.091858 569.479187,621.339111 562.735352,645.678833 
	C559.706604,656.610474 557.164673,667.702332 554.977966,678.834595 
	C552.949524,689.160828 551.609924,699.626709 550.138550,710.055298 
	C549.713501,713.067810 550.778503,715.182739 554.508362,715.051819 
	C559.500183,714.876587 564.502869,715.007690 570.500549,715.007202 
M1064.995728,522.849487 
	C1064.995850,567.178406 1064.916504,611.507568 1065.086792,655.835815 
	C1065.110840,662.071472 1065.846558,668.408325 1067.121094,674.517212 
	C1072.887573,702.154297 1088.900513,714.341003 1112.473389,717.676453 
	C1132.877075,720.563660 1153.131348,717.051636 1171.974243,707.851685 
	C1172.854370,707.421936 1173.926514,705.685608 1173.674194,705.043213 
	C1173.315918,704.131348 1171.879150,703.373047 1170.771240,703.114380 
	C1169.935425,702.919250 1168.869629,703.551819 1167.945557,703.915527 
	C1152.804321,709.875488 1137.108521,711.486084 1120.992310,710.055420 
	C1099.863037,708.179810 1083.066040,697.189026 1076.168457,676.169861 
	C1071.589722,662.216919 1071.209473,647.746033 1071.155884,633.291870 
	C1071.021362,596.962708 1071.111328,560.632751 1071.111328,524.303101 
	C1071.111328,522.354431 1071.111328,520.405823 1071.111328,518.390686 
	C1067.553223,517.932373 1065.081665,518.063416 1064.995728,522.849487 
M34.994198,573.500000 
	C34.994198,591.161072 34.994164,608.822083 34.994209,626.483154 
	C34.994282,653.807800 34.984097,681.132446 35.002361,708.457092 
	C35.006496,714.644470 35.394447,715.000244 41.470787,715.002563 
	C55.632954,715.007996 69.795326,714.962708 83.957115,715.035156 
	C87.003838,715.050781 89.136612,714.674133 89.062019,710.799072 
	C88.988487,706.978821 86.573380,707.094849 83.971390,707.096619 
	C72.141815,707.104675 60.312244,707.101440 48.482670,707.099670 
	C41.989464,707.098694 41.982117,707.096313 41.981911,700.616699 
	C41.979946,639.302856 41.980881,577.989014 41.979481,516.675171 
	C41.979446,515.175720 42.348831,513.526245 41.841824,512.220032 
	C41.356529,510.969757 39.994465,509.290985 38.940533,509.234222 
	C37.751610,509.170197 36.027061,510.451904 35.365456,511.618896 
	C34.706215,512.781677 35.005905,514.527588 35.004631,516.017944 
	C34.988571,534.845276 34.994144,553.672668 34.994198,573.500000 
M217.043991,624.988098 
	C226.648544,625.326538 236.306549,625.151672 245.842941,626.144653 
	C255.804611,627.181946 265.783600,628.798462 275.500183,631.195007 
	C282.579895,632.941162 288.599213,637.470703 290.302521,645.064026 
	C291.317627,649.589294 290.488586,654.528198 290.492889,659.281006 
	C295.066193,657.112244 297.841125,652.388733 298.066956,646.388306 
	C298.532776,634.010498 291.443451,625.026550 277.413300,622.238098 
	C266.390411,620.047363 255.106186,618.982300 243.885681,618.042175 
	C236.537567,617.426575 229.096039,617.925903 221.405899,617.925903 
	C221.405899,616.337708 221.355392,615.711121 221.413315,615.094666 
	C222.624237,602.206238 223.909882,589.324463 225.049545,576.429810 
	C226.058105,565.018677 227.054794,553.602905 227.781097,542.171631 
	C228.403336,532.378357 228.715729,522.562073 228.936996,512.750793 
	C228.964462,511.532532 227.591232,510.282654 226.867065,509.047455 
	C225.552872,509.972748 223.972778,510.685822 223.010269,511.891785 
	C222.267303,512.822693 222.091034,514.359924 222.017227,515.647888 
	C220.644897,539.597351 219.450348,563.557678 217.933105,587.497681 
	C217.339111,596.870239 215.676773,606.183289 215.288452,615.556030 
	C215.165909,618.513855 211.768066,622.258179 217.043991,624.988098 
M722.599731,660.696167 
	C711.710754,656.906555 701.674438,659.692932 695.987854,668.084412 
	C690.831665,675.693237 691.361633,687.994080 697.315369,694.656433 
	C703.458862,701.531128 711.208313,703.610840 719.958435,701.120056 
	C728.374878,698.724121 733.720886,693.121094 734.911377,684.285645 
	C736.295166,674.015564 732.749451,665.986206 722.599731,660.696167 
M761.888000,568.579834 
	C761.887573,567.080444 762.059814,565.554688 761.836060,564.089417 
	C761.630005,562.739807 760.998230,561.455139 760.554016,560.141846 
	C759.093445,560.751160 757.316345,561.039124 756.270203,562.069275 
	C755.397888,562.928345 755.038696,564.657227 755.037048,566.001587 
	C754.977478,613.981873 755.025085,661.962280 754.917297,709.942383 
	C754.908264,713.941467 756.308716,715.181580 760.164612,715.075623 
	C767.988831,714.860596 775.823059,715.010559 783.653198,715.010376 
	C791.270935,715.010193 798.888611,715.010315 806.400574,715.010315 
	C807.616089,707.535156 807.290161,707.099609 800.789368,707.092102 
	C789.793884,707.079468 778.789917,706.837036 767.806641,707.203186 
	C762.864685,707.367859 761.769043,705.698425 761.787292,701.005554 
	C761.957275,657.190796 761.887878,613.375122 761.888000,568.579834 
M839.580017,617.190918 
	C839.716675,619.172791 839.970520,621.154480 839.972290,623.136475 
	C839.998047,651.968323 840.057373,680.800537 839.914917,709.631714 
	C839.894409,713.785461 841.216431,715.146240 845.372498,715.086548 
	C859.535522,714.883179 873.703308,715.018616 887.869202,714.990845 
	C889.141724,714.988342 890.413696,714.741516 891.603149,714.616821 
	C892.440491,707.263245 892.308777,707.100525 885.507874,707.095337 
	C874.841736,707.087097 864.175659,707.093628 853.509521,707.093079 
	C846.921326,707.092773 846.964233,707.091675 846.904419,700.686646 
	C846.624512,670.712524 846.388306,640.737610 845.987305,610.765015 
	C845.831726,599.138062 841.268616,592.959839 831.287476,591.472290 
	C825.907471,590.670410 820.303528,590.939026 814.851135,591.367920 
	C813.539368,591.471069 811.821594,594.006165 811.481934,595.666626 
	C811.312317,596.495789 813.682739,598.515076 815.167480,598.858765 
	C817.540649,599.408081 820.135986,598.934265 822.632446,599.026001 
	C831.300293,599.344421 836.310486,602.631470 837.867310,609.084595 
	C838.447327,611.488708 838.760376,613.957153 839.580017,617.190918 
M150.818924,714.197632 
	C152.580841,714.466370 154.341507,714.957947 156.104858,714.967834 
	C168.264175,715.036377 180.433929,714.717773 192.579208,715.136475 
	C197.938492,715.321167 200.034851,713.079529 200.814774,707.736755 
	C198.953873,707.513550 197.231461,707.135925 195.507309,707.127747 
	C184.180725,707.073975 172.851028,707.225952 161.529556,706.979431 
	C159.571381,706.936890 156.827621,705.856018 155.830444,704.342834 
	C139.996918,680.316345 121.279434,658.769043 100.377068,639.071289 
	C98.428368,637.234924 96.164116,635.733459 93.648186,633.764954 
	C92.275719,641.044434 93.123878,646.366943 98.449478,651.188110 
	C105.567360,657.631897 112.370384,664.573303 118.403282,672.033203 
	C129.379501,685.605713 139.688919,699.717529 150.818924,714.197632 
M209.699417,707.888550 
	C222.927856,711.264832 235.993301,716.215088 249.427322,717.606323 
	C265.110077,719.230469 281.208191,719.118591 296.675537,713.982605 
	C308.229828,710.145935 318.670776,704.516052 327.433350,695.986816 
	C328.096283,695.341492 328.341797,694.267395 329.361359,692.238342 
	C289.143524,718.805237 249.170120,713.025330 208.325073,697.223022 
	C203.667282,703.664124 203.679123,704.711243 209.699417,707.888550 
M1050.803711,648.759705 
	C1049.003174,648.216980 1047.204590,647.209106 1045.401855,647.201599 
	C1020.451233,647.098145 995.500061,647.118835 970.549133,647.161133 
	C968.838562,647.164062 967.128662,647.580322 965.202820,647.832581 
	C966.190735,653.004456 968.469116,655.141418 973.473816,655.100403 
	C997.258850,654.905518 1021.047241,654.903992 1044.832031,655.112854 
	C1049.134155,655.150574 1050.877686,653.617859 1050.803711,648.759705 
M321.492065,549.107178 
	C307.187347,549.107361 292.880676,549.236816 278.579254,549.019287 
	C274.872314,548.962952 273.339783,550.453918 273.232941,553.771118 
	C273.103241,557.796326 276.212006,556.992798 278.571686,556.997192 
	C296.535675,557.030640 314.499786,557.022217 332.463806,556.999329 
	C333.892731,556.997498 335.321381,556.789246 336.665314,556.683594 
	C337.371246,549.181152 337.319763,549.120972 330.471161,549.108032 
	C327.809814,549.103027 325.148468,549.107361 321.492065,549.107178 
M1134.518799,600.001648 
	C1143.497437,600.001953 1152.476196,600.011169 1161.454834,599.999451 
	C1167.527588,599.991516 1167.824097,599.566345 1166.108887,592.899170 
	C1152.299927,592.899170 1138.363770,592.809326 1124.434082,593.067688 
	C1123.304688,593.088562 1121.609497,595.384338 1121.348633,596.833801 
	C1121.198608,597.667480 1123.290771,599.642944 1124.573364,599.846802 
	C1127.493164,600.310608 1130.536011,599.998474 1134.518799,600.001648 
M469.502075,519.977844 
	C467.366943,524.443970 465.400055,529.000122 463.065216,533.359253 
	C456.074219,546.411255 448.907532,559.369141 441.915863,572.420837 
	C441.303558,573.563904 441.471497,575.124878 441.276978,576.491760 
	C441.736267,576.593140 442.195526,576.694458 442.654785,576.795837 
	C455.285431,554.852600 468.010590,532.958496 478.446198,508.633148 
	C471.471649,510.226868 472.393402,516.014221 469.502075,519.977844 
M215.344910,657.226746 
	C214.232727,658.114441 212.429214,658.810547 212.121460,659.921204 
	C210.237152,666.720886 208.394760,673.560913 207.142288,680.496582 
	C206.361832,684.818298 204.670502,689.721191 209.937820,693.354980 
	C212.288879,682.787292 214.676697,672.338318 216.865646,661.847900 
	C217.132217,660.570435 216.329636,659.069885 215.344910,657.226746 
z"/>
<path fill="#FDFDFD" opacity="1.000000" stroke="none" 
	d="
M96.461105,577.459839 
	C115.005768,557.392578 133.384628,537.652161 151.523590,517.693665 
	C154.787445,514.102478 157.949234,512.221619 163.002060,512.457642 
	C172.476501,512.900269 181.986694,512.566101 191.481934,512.588135 
	C192.929901,512.591492 194.377487,512.771851 197.544800,512.987305 
	C169.987595,542.330994 143.380066,570.663452 116.424553,599.366394 
	C150.386429,627.229004 178.236725,660.586731 202.490662,698.857910 
	C197.730423,698.857910 194.182663,698.857849 190.634903,698.857910 
	C182.805420,698.858093 174.965256,698.615723 167.150894,698.959534 
	C163.178635,699.134338 161.226501,697.298645 159.185181,694.334717 
	C139.913773,666.354126 117.756821,640.987183 91.015579,619.831421 
	C89.343826,618.508850 87.585510,617.295715 85.214172,615.551086 
	C85.066132,617.598755 84.881447,618.970276 84.880508,620.341858 
	C84.863876,644.829834 84.786575,669.318359 84.954323,693.805237 
	C84.981400,697.757385 83.881241,699.075500 79.872475,698.942505 
	C71.552399,698.666504 63.215057,698.763672 54.888458,698.912109 
	C52.029602,698.963074 50.612843,698.358398 50.616985,695.115295 
	C50.693832,634.978577 50.690742,574.841736 50.718163,514.704956 
	C50.718372,514.237061 50.906670,513.769287 51.088047,512.924744 
	C62.142906,512.924744 73.202148,512.924744 84.838318,512.924744 
	C84.838318,538.014832 84.838318,562.854858 84.838318,589.316772 
	C89.347656,584.716309 92.780418,581.214172 96.461105,577.459839 
z"/>
<path fill="#FDFDFD" opacity="1.000000" stroke="none" 
	d="
M306.718750,649.286743 
	C307.528809,629.943237 299.028473,618.293335 279.473450,614.177429 
	C266.361969,611.417786 252.832657,610.620728 239.476166,609.067261 
	C236.876099,608.764893 234.210754,609.023804 231.317856,609.023804 
	C233.673050,576.818420 235.995056,545.066956 238.344757,512.936646 
	C269.661774,512.936646 301.079224,512.936646 332.884766,512.936646 
	C332.884766,522.098633 332.884766,531.299500 332.884766,540.922974 
	C310.498169,540.922974 288.379456,540.922974 265.840363,540.922974 
	C264.731171,554.674316 263.652283,568.050171 262.524048,582.037781 
	C267.656036,582.670166 273.043823,583.231323 278.399353,584.013489 
	C294.228607,586.325317 309.176971,590.750854 321.902954,601.150024 
	C348.321960,622.738647 349.730255,681.614319 301.852509,697.074341 
	C283.300446,703.064941 264.556915,703.429993 245.651962,699.557190 
	C238.177582,698.025940 230.853638,695.769409 223.440277,693.927368 
	C220.059784,693.087341 218.996140,691.499390 219.952454,687.852234 
	C221.965210,680.176147 223.442993,672.359802 225.055908,664.987061 
	C234.595993,667.672180 243.504852,670.748535 252.660446,672.614075 
	C264.375610,675.001221 276.227234,674.669739 287.711090,670.833374 
	C297.956421,667.410828 304.724518,660.678101 306.718750,649.286743 
z"/>
<path fill="#FDFDFD" opacity="1.000000" stroke="none" 
	d="
M1027.825439,569.170166 
	C1041.166748,582.177795 1045.427734,598.558899 1046.852417,615.978943 
	C1047.339722,621.937988 1046.794067,627.975220 1047.085571,633.958923 
	C1047.275024,637.849365 1046.083984,639.073181 1042.036499,639.046204 
	C1014.550354,638.862793 987.062439,638.949951 959.575073,638.949768 
	C957.779541,638.949768 955.984009,638.949829 954.201294,638.949829 
	C954.165405,654.955322 965.489319,668.632996 980.772949,672.048401 
	C998.592957,676.030640 1015.775208,673.090698 1033.646606,667.483887 
	C1034.749512,673.593201 1036.040039,679.504028 1036.843750,685.480347 
	C1038.088989,694.739014 1037.930298,694.688904 1028.625244,697.106934 
	C1008.875244,702.239258 989.033325,704.298950 968.939026,699.172974 
	C943.270508,692.625000 927.920349,675.807312 922.518616,650.400391 
	C917.841431,628.401672 919.114868,606.650024 930.347046,586.400330 
	C943.262024,563.116882 969.903809,550.511475 996.266724,554.768555 
	C1008.052002,556.671631 1018.731201,560.671082 1027.825439,569.170166 
M990.087280,580.941528 
	C967.572876,578.330688 955.517456,597.120850 954.729187,614.975281 
	C955.149353,615.191833 955.586914,615.613708 956.026062,615.615417 
	C974.632080,615.687500 993.238647,615.768494 1011.843445,615.628601 
	C1012.804688,615.621460 1014.639832,613.622681 1014.571411,612.657227 
	C1013.567810,598.500427 1007.515686,584.246338 990.087280,580.941528 
z"/>
<path fill="#FCFCFC" opacity="1.000000" stroke="none" 
	d="
M798.978516,556.043335 
	C815.164124,554.243591 830.848145,552.853638 846.682007,555.822083 
	C867.361755,559.699036 882.979187,575.050537 885.867249,595.760498 
	C887.035767,604.140686 887.806641,612.641113 887.891846,621.095520 
	C888.150391,646.739807 887.985474,672.388367 887.985474,698.461670 
	C877.243347,698.461670 866.720703,698.461670 855.666748,698.461670 
	C855.666748,696.571960 855.666748,694.778320 855.666748,692.984680 
	C855.666748,670.490662 855.889343,647.993347 855.548462,625.504456 
	C855.425720,617.404480 854.596680,609.189209 852.935608,601.268616 
	C850.523804,589.767639 844.006592,583.849670 832.266113,582.962769 
	C822.745178,582.243591 813.100830,583.157471 803.103333,583.355103 
	C803.103333,622.358948 803.103333,660.275818 803.103333,698.882996 
	C792.750000,698.882996 782.819275,698.957031 772.894104,698.755859 
	C772.009766,698.737976 770.815735,697.060913 770.392700,695.921509 
	C769.957397,694.748962 770.287231,693.291138 770.287231,691.958191 
	C770.286865,650.635925 770.371338,609.313171 770.170898,567.991882 
	C770.148193,563.309937 771.760986,561.556091 776.090515,560.788391 
	C783.614929,559.454285 791.060059,557.672424 798.978516,556.043335 
z"/>
<path fill="#FDFDFD" opacity="1.000000" stroke="none" 
	d="
M487.173584,512.785034 
	C499.047882,512.642517 510.539642,512.644775 522.031250,512.683960 
	C522.488647,512.685486 522.944824,513.037903 523.866028,513.419006 
	C516.605530,526.568420 509.697632,539.810730 502.114075,552.654114 
	C488.421051,575.844421 474.265961,598.761475 460.482727,621.899231 
	C459.048248,624.307251 458.160980,627.426941 458.135010,630.226746 
	C457.941833,651.048706 458.030426,671.873169 458.030609,692.696899 
	C458.030609,694.497375 458.030609,696.297852 458.030609,698.558899 
	C455.822937,698.673584 454.042358,698.880676 452.267578,698.839050 
	C443.016815,698.622070 433.767578,698.341858 424.517792,698.083618 
	C424.311584,688.971191 423.994873,679.859680 423.925323,670.746216 
	C423.823639,657.419800 424.050293,644.088989 423.782288,630.767273 
	C423.722809,627.812073 422.752747,624.550171 421.241516,621.998230 
	C399.910309,585.977112 378.413055,550.054260 356.457092,513.271851 
	C359.238708,512.867493 360.326324,512.574585 361.414581,512.572083 
	C371.742920,512.548340 382.075562,512.745300 392.397583,512.493958 
	C396.092346,512.404053 397.892365,513.678406 399.608612,516.924805 
	C412.649963,541.593140 425.922424,566.139404 439.160889,590.703186 
	C439.825714,591.936768 440.841949,592.981018 442.235992,594.832458 
	C451.033997,579.452759 459.640015,564.921753 467.729126,550.108459 
	C474.400665,537.891235 480.460236,525.339783 487.173584,512.785034 
z"/>
<path fill="#FDFDFD" opacity="1.000000" stroke="none" 
	d="
M597.000000,540.901184 
	C577.699219,540.901184 558.898376,540.901184 539.731628,540.901184 
	C539.731628,531.451294 539.731628,522.367371 539.731628,512.922180 
	C580.874573,512.922180 622.118286,512.922180 664.016907,512.922180 
	C664.016907,520.808533 664.100281,528.554932 663.925232,536.295410 
	C663.899536,537.431335 662.752808,538.624207 661.944214,539.648071 
	C637.247620,570.917114 620.868347,606.401489 610.130859,644.464600 
	C605.186462,661.992065 602.287659,680.096619 598.331726,698.544006 
	C588.962524,698.544006 578.225159,698.544006 566.303650,698.544006 
	C573.054993,641.475281 592.441467,589.385315 624.544861,540.901184 
	C615.258911,540.901184 606.379456,540.901184 597.000000,540.901184 
z"/>
<path fill="#FCFCFC" opacity="1.000000" stroke="none" 
	d="
M1122.708984,670.560303 
	C1133.484863,675.965332 1144.108154,673.838013 1154.732178,671.437744 
	C1155.703247,671.218384 1156.706543,670.998230 1157.591187,670.566223 
	C1161.785400,668.518066 1163.680420,669.358765 1164.306885,674.421753 
	C1165.136475,681.127319 1166.961060,687.709778 1168.407227,694.578430 
	C1148.081177,702.725098 1127.950928,705.363403 1107.553101,698.093872 
	C1089.098999,691.517151 1082.126221,676.078552 1081.220093,658.181091 
	C1079.983643,633.757324 1080.208862,609.255188 1080.001953,584.785034 
	C1079.838745,565.468262 1079.968994,546.148926 1079.968994,526.830750 
	C1079.968994,525.020813 1079.969116,523.210876 1079.969116,520.957397 
	C1090.823608,519.256104 1101.287231,517.616089 1112.545410,515.851501 
	C1112.545410,529.734192 1112.545410,543.230652 1112.545410,557.357300 
	C1129.657959,557.357300 1146.038086,557.357300 1162.614502,557.357300 
	C1162.614502,566.429749 1162.614502,574.856873 1162.614502,583.889282 
	C1146.173950,583.889282 1129.805786,583.889282 1113.180298,583.889282 
	C1113.007935,585.741150 1112.785889,587.021790 1112.784790,588.302490 
	C1112.769531,607.287537 1112.601685,626.275452 1112.909058,645.255676 
	C1112.993896,650.496277 1113.873779,655.937195 1115.593140,660.866150 
	C1116.820923,664.386292 1120.060425,667.204773 1122.708984,670.560303 
z"/>
<path fill="#454545" opacity="1.000000" stroke="none" 
	d="
M400.995422,605.969971 
	C404.685211,611.739990 408.133453,617.237488 411.749817,622.622009 
	C414.243347,626.334778 415.219635,630.220398 415.177826,634.767029 
	C414.974121,656.924194 415.199615,679.085388 414.992889,701.242554 
	C414.949890,705.848755 416.322662,707.316040 420.961182,707.202026 
	C432.949829,706.907471 444.950562,707.105225 456.946442,707.101257 
	C459.514465,707.100464 461.984131,706.880859 462.064331,710.744507 
	C462.143860,714.575195 460.109985,715.051270 457.014648,715.036133 
	C441.357025,714.959351 425.698792,715.000793 409.408478,715.000793 
	C408.942596,712.455933 408.085663,709.934509 408.080811,707.411438 
	C408.036041,684.092651 408.189270,660.773438 408.105255,637.454956 
	C408.098236,635.503845 407.074738,633.382019 406.029114,631.635498 
	C393.827911,611.254944 381.336029,591.045898 369.326935,570.553589 
	C360.796051,555.996460 353.018555,540.999512 344.622894,526.360474 
	C341.486847,520.892334 341.735565,515.336609 342.278595,509.562378 
	C346.282593,508.054932 346.897552,511.210999 348.144440,513.402405 
	C364.751923,542.590088 381.350922,571.782593 397.963074,600.967590 
	C398.867462,602.556458 399.869171,604.089966 400.995422,605.969971 
z"/>
<path fill="#434343" opacity="1.000000" stroke="none" 
	d="
M570.000732,715.007202 
	C564.502869,715.007690 559.500183,714.876587 554.508362,715.051819 
	C550.778503,715.182739 549.713501,713.067810 550.138550,710.055298 
	C551.609924,699.626709 552.949524,689.160828 554.977966,678.834595 
	C557.164673,667.702332 559.706604,656.610474 562.735352,645.678833 
	C569.479187,621.339111 579.136475,598.091858 590.309753,575.477417 
	C592.798035,570.441284 595.932861,565.725891 598.728149,560.838928 
	C599.257324,559.913696 599.588867,558.875427 600.331238,557.143921 
	C574.583252,557.143921 549.547119,557.143921 524.609558,557.143921 
	C521.943176,540.316895 523.507080,530.234924 530.868591,519.716980 
	C530.868591,528.018860 530.866394,535.182251 530.869202,542.345703 
	C530.871887,549.111877 530.874207,549.112000 537.589783,549.112061 
	C558.748047,549.112061 579.906311,549.112000 601.064575,549.111938 
	C602.863403,549.111938 604.662231,549.111938 608.331055,549.111938 
	C580.407776,598.795776 561.499634,650.183777 557.255676,706.832703 
	C559.198730,706.925964 560.950989,707.079834 562.703491,707.082886 
	C574.698730,707.104065 586.694031,707.074158 598.689148,707.109619 
	C601.105164,707.116760 604.064209,706.514709 603.985352,710.489807 
	C603.913574,714.109436 601.963257,715.149597 598.488098,715.077087 
	C589.162476,714.882629 579.830200,715.008545 570.000732,715.007202 
z"/>
<path fill="#454545" opacity="1.000000" stroke="none" 
	d="
M1064.997314,522.393921 
	C1065.081665,518.063416 1067.553223,517.932373 1071.111328,518.390686 
	C1071.111328,520.405823 1071.111328,522.354431 1071.111328,524.303101 
	C1071.111328,560.632751 1071.021362,596.962708 1071.155884,633.291870 
	C1071.209473,647.746033 1071.589722,662.216919 1076.168457,676.169861 
	C1083.066040,697.189026 1099.863037,708.179810 1120.992310,710.055420 
	C1137.108521,711.486084 1152.804321,709.875488 1167.945557,703.915527 
	C1168.869629,703.551819 1169.935425,702.919250 1170.771240,703.114380 
	C1171.879150,703.373047 1173.315918,704.131348 1173.674194,705.043213 
	C1173.926514,705.685608 1172.854370,707.421936 1171.974243,707.851685 
	C1153.131348,717.051636 1132.877075,720.563660 1112.473389,717.676453 
	C1088.900513,714.341003 1072.887573,702.154297 1067.121094,674.517212 
	C1065.846558,668.408325 1065.110840,662.071472 1065.086792,655.835815 
	C1064.916504,611.507568 1064.995850,567.178406 1064.997314,522.393921 
z"/>
<path fill="#444444" opacity="1.000000" stroke="none" 
	d="
M34.994194,573.000000 
	C34.994144,553.672668 34.988571,534.845276 35.004631,516.017944 
	C35.005905,514.527588 34.706215,512.781677 35.365456,511.618896 
	C36.027061,510.451904 37.751610,509.170197 38.940533,509.234222 
	C39.994465,509.290985 41.356529,510.969757 41.841824,512.220032 
	C42.348831,513.526245 41.979446,515.175720 41.979481,516.675171 
	C41.980881,577.989014 41.979946,639.302856 41.981911,700.616699 
	C41.982117,707.096313 41.989464,707.098694 48.482670,707.099670 
	C60.312244,707.101440 72.141815,707.104675 83.971390,707.096619 
	C86.573380,707.094849 88.988487,706.978821 89.062019,710.799072 
	C89.136612,714.674133 87.003838,715.050781 83.957115,715.035156 
	C69.795326,714.962708 55.632954,715.007996 41.470787,715.002563 
	C35.394447,715.000244 35.006496,714.644470 35.002361,708.457092 
	C34.984097,681.132446 34.994282,653.807800 34.994209,626.483154 
	C34.994164,608.822083 34.994198,591.161072 34.994194,573.000000 
z"/>
<path fill="#454545" opacity="1.000000" stroke="none" 
	d="
M925.180176,577.149597 
	C918.888794,588.410400 913.830566,600.285645 912.593262,613.121155 
	C909.846680,641.611511 913.017700,668.747070 934.716492,690.295410 
	C947.604309,703.093750 963.942078,708.203918 981.496704,710.041687 
	C1001.816711,712.168945 1021.553650,709.461670 1040.674561,702.249939 
	C1041.104980,702.087646 1041.650146,702.229614 1042.390381,702.229614 
	C1043.886597,705.448853 1042.013428,707.138977 1039.421509,708.247375 
	C1026.168335,713.915283 1012.438843,717.812622 997.935547,717.945251 
	C984.556702,718.067627 971.325317,718.253662 958.052185,714.381897 
	C935.489258,707.800232 920.079895,693.816223 911.527466,672.517334 
	C905.123047,656.567749 903.980347,639.723389 905.773254,622.510986 
	C907.388550,607.003174 912.213867,592.937439 920.995911,580.159485 
	C921.821838,578.957764 922.980957,577.984985 924.447876,576.914795 
	C924.910400,576.923706 925.180176,577.149597 925.180176,577.149597 
z"/>
<path fill="#454545" opacity="1.000000" stroke="none" 
	d="
M216.603851,624.948242 
	C211.768066,622.258179 215.165909,618.513855 215.288452,615.556030 
	C215.676773,606.183289 217.339111,596.870239 217.933105,587.497681 
	C219.450348,563.557678 220.644897,539.597351 222.017227,515.647888 
	C222.091034,514.359924 222.267303,512.822693 223.010269,511.891785 
	C223.972778,510.685822 225.552872,509.972748 226.867065,509.047424 
	C227.591232,510.282654 228.964462,511.532532 228.936996,512.750793 
	C228.715729,522.562073 228.403336,532.378357 227.781097,542.171631 
	C227.054794,553.602905 226.058105,565.018677 225.049545,576.429810 
	C223.909882,589.324463 222.624237,602.206238 221.413315,615.094666 
	C221.355392,615.711121 221.405899,616.337708 221.405899,617.925903 
	C229.096039,617.925903 236.537567,617.426575 243.885681,618.042175 
	C255.106186,618.982300 266.390411,620.047363 277.413300,622.238098 
	C291.443451,625.026550 298.532776,634.010498 298.066956,646.388306 
	C297.841125,652.388733 295.066193,657.112244 290.490723,659.281128 
	C290.488586,654.528198 291.317627,649.589294 290.302521,645.064026 
	C288.599213,637.470703 282.579895,632.941162 275.500183,631.195007 
	C265.783600,628.798462 255.804611,627.181946 245.842941,626.144653 
	C236.306549,625.151672 226.648544,625.326538 216.603851,624.948242 
z"/>
<path fill="#FCFCFC" opacity="1.000000" stroke="none" 
	d="
M722.957520,660.846313 
	C732.749451,665.986206 736.295166,674.015564 734.911377,684.285645 
	C733.720886,693.121094 728.374878,698.724121 719.958435,701.120056 
	C711.208313,703.610840 703.458862,701.531128 697.315369,694.656433 
	C691.361633,687.994080 690.831665,675.693237 695.987854,668.084412 
	C701.674438,659.692932 711.710754,656.906555 722.957520,660.846313 
z"/>
<path fill="#424242" opacity="1.000000" stroke="none" 
	d="
M761.887878,569.069824 
	C761.887878,613.375122 761.957275,657.190796 761.787292,701.005554 
	C761.769043,705.698425 762.864685,707.367859 767.806641,707.203186 
	C778.789917,706.837036 789.793884,707.079468 800.789368,707.092102 
	C807.290161,707.099609 807.616089,707.535156 806.400574,715.010315 
	C798.888611,715.010315 791.270935,715.010193 783.653198,715.010376 
	C775.823059,715.010559 767.988831,714.860596 760.164612,715.075623 
	C756.308716,715.181580 754.908264,713.941467 754.917297,709.942383 
	C755.025085,661.962280 754.977478,613.981873 755.037048,566.001587 
	C755.038696,564.657227 755.397888,562.928345 756.270203,562.069275 
	C757.316345,561.039124 759.093445,560.751160 760.554016,560.141846 
	C760.998230,561.455139 761.630005,562.739807 761.836060,564.089417 
	C762.059814,565.554688 761.887573,567.080444 761.887878,569.069824 
z"/>
<path fill="#434343" opacity="1.000000" stroke="none" 
	d="
M839.387573,616.793579 
	C838.760376,613.957153 838.447327,611.488708 837.867310,609.084595 
	C836.310486,602.631470 831.300293,599.344421 822.632446,599.026001 
	C820.135986,598.934265 817.540649,599.408081 815.167480,598.858765 
	C813.682739,598.515076 811.312317,596.495789 811.481934,595.666626 
	C811.821594,594.006165 813.539368,591.471069 814.851135,591.367920 
	C820.303528,590.939026 825.907471,590.670410 831.287476,591.472290 
	C841.268616,592.959839 845.831726,599.138062 845.987305,610.765015 
	C846.388306,640.737610 846.624512,670.712524 846.904419,700.686646 
	C846.964233,707.091675 846.921326,707.092773 853.509521,707.093079 
	C864.175659,707.093628 874.841736,707.087097 885.507874,707.095337 
	C892.308777,707.100525 892.440491,707.263245 891.603149,714.616821 
	C890.413696,714.741516 889.141724,714.988342 887.869202,714.990845 
	C873.703308,715.018616 859.535522,714.883179 845.372498,715.086548 
	C841.216431,715.146240 839.894409,713.785461 839.914917,709.631714 
	C840.057373,680.800537 839.998047,651.968323 839.972290,623.136475 
	C839.970520,621.154480 839.716675,619.172791 839.387573,616.793579 
z"/>
<path fill="#444444" opacity="1.000000" stroke="none" 
	d="
M150.547760,713.901001 
	C139.688919,699.717529 129.379501,685.605713 118.403282,672.033203 
	C112.370384,664.573303 105.567360,657.631897 98.449478,651.188110 
	C93.123878,646.366943 92.275719,641.044434 93.648186,633.764954 
	C96.164116,635.733459 98.428368,637.234924 100.377068,639.071289 
	C121.279434,658.769043 139.996918,680.316345 155.830444,704.342834 
	C156.827621,705.856018 159.571381,706.936890 161.529556,706.979431 
	C172.851028,707.225952 184.180725,707.073975 195.507309,707.127747 
	C197.231461,707.135925 198.953873,707.513550 200.814774,707.736755 
	C200.034851,713.079529 197.938492,715.321167 192.579208,715.136475 
	C180.433929,714.717773 168.264175,715.036377 156.104858,714.967834 
	C154.341507,714.957947 152.580841,714.466370 150.547760,713.901001 
z"/>
<path fill="#444444" opacity="1.000000" stroke="none" 
	d="
M209.361511,707.700439 
	C203.679123,704.711243 203.667282,703.664124 208.325073,697.223022 
	C249.170120,713.025330 289.143524,718.805237 329.361359,692.238342 
	C328.341797,694.267395 328.096283,695.341492 327.433350,695.986816 
	C318.670776,704.516052 308.229828,710.145935 296.675537,713.982605 
	C281.208191,719.118591 265.110077,719.230469 249.427322,717.606323 
	C235.993301,716.215088 222.927856,711.264832 209.361511,707.700439 
z"/>
<path fill="#424242" opacity="1.000000" stroke="none" 
	d="
M1050.878052,649.176147 
	C1050.877686,653.617859 1049.134155,655.150574 1044.832031,655.112854 
	C1021.047241,654.903992 997.258850,654.905518 973.473816,655.100403 
	C968.469116,655.141418 966.190735,653.004456 965.202820,647.832581 
	C967.128662,647.580322 968.838562,647.164062 970.549133,647.161133 
	C995.500061,647.118835 1020.451233,647.098145 1045.401855,647.201599 
	C1047.204590,647.209106 1049.003174,648.216980 1050.878052,649.176147 
z"/>
<path fill="#454545" opacity="1.000000" stroke="none" 
	d="
M687.011108,664.010254 
	C685.984863,669.004639 684.402039,673.959534 684.044250,679.001343 
	C683.211426,690.737976 687.869629,700.198303 697.983826,706.298462 
	C707.961670,712.316345 718.382019,712.259216 728.705200,706.735718 
	C730.438171,705.808411 732.182068,704.901428 734.188477,703.844116 
	C729.254883,713.899170 719.229370,718.843994 703.687195,717.875366 
	C692.102051,717.153320 683.908142,710.283936 679.672119,699.842285 
	C674.415771,686.885315 676.314331,674.646484 686.683716,664.128540 
	C687.000793,664.000793 687.011047,664.010254 687.011108,664.010254 
z"/>
<path fill="#424242" opacity="1.000000" stroke="none" 
	d="
M321.989594,549.107300 
	C325.148468,549.107361 327.809814,549.103027 330.471161,549.108032 
	C337.319763,549.120972 337.371246,549.181152 336.665314,556.683594 
	C335.321381,556.789246 333.892731,556.997498 332.463806,556.999329 
	C314.499786,557.022217 296.535675,557.030640 278.571686,556.997192 
	C276.212006,556.992798 273.103241,557.796326 273.232941,553.771118 
	C273.339783,550.453918 274.872314,548.962952 278.579254,549.019287 
	C292.880676,549.236816 307.187347,549.107361 321.989594,549.107300 
z"/>
<path fill="#454545" opacity="1.000000" stroke="none" 
	d="
M1134.023926,600.001709 
	C1130.536011,599.998474 1127.493164,600.310608 1124.573364,599.846802 
	C1123.290771,599.642944 1121.198608,597.667480 1121.348633,596.833801 
	C1121.609497,595.384338 1123.304688,593.088562 1124.434082,593.067688 
	C1138.363770,592.809326 1152.299927,592.899170 1166.108887,592.899170 
	C1167.824097,599.566345 1167.527588,599.991516 1161.454834,599.999451 
	C1152.476196,600.011169 1143.497437,600.001953 1134.023926,600.001709 
z"/>
<path fill="#434343" opacity="1.000000" stroke="none" 
	d="
M469.687622,519.648926 
	C472.393402,516.014221 471.471649,510.226868 478.446198,508.633148 
	C468.010590,532.958496 455.285431,554.852600 442.654785,576.795837 
	C442.195526,576.694458 441.736267,576.593140 441.276978,576.491760 
	C441.471497,575.124878 441.303558,573.563904 441.915863,572.420837 
	C448.907532,559.369141 456.074219,546.411255 463.065216,533.359253 
	C465.400055,529.000122 467.366943,524.443970 469.687622,519.648926 
z"/>
<path fill="#444444" opacity="1.000000" stroke="none" 
	d="
M215.683746,657.449707 
	C216.329636,659.069885 217.132217,660.570435 216.865646,661.847900 
	C214.676697,672.338318 212.288879,682.787292 209.937820,693.354980 
	C204.670502,689.721191 206.361832,684.818298 207.142288,680.496582 
	C208.394760,673.560913 210.237152,666.720886 212.121460,659.921204 
	C212.429214,658.810547 214.232727,658.114441 215.683746,657.449707 
z"/>
<path fill="#424242" opacity="1.000000" stroke="none" 
	d="
M155.026840,573.022644 
	C154.876892,573.656250 154.935776,574.493103 154.546204,574.893555 
	C146.608368,583.051758 138.619171,591.159973 130.640228,599.278137 
	C130.080124,598.733398 129.520035,598.188660 128.959946,597.643860 
	C137.394150,589.417114 145.828354,581.190369 154.626709,572.977051 
	C154.990891,572.990417 155.026840,573.022644 155.026840,573.022644 
z"/>
<path fill="#424242" opacity="1.000000" stroke="none" 
	d="
M167.009857,560.008118 
	C164.227798,563.266113 161.445724,566.524048 158.304489,569.866333 
	C157.945328,569.950684 157.823547,569.834229 157.823547,569.834229 
	C160.647415,566.554810 163.471298,563.275452 166.647018,559.997437 
	C166.998856,559.998840 167.009872,560.008118 167.009857,560.008118 
z"/>
<path fill="#424242" opacity="1.000000" stroke="none" 
	d="
M189.999329,535.000000 
	C187.214722,538.257568 184.430099,541.515137 181.311523,544.876831 
	C180.977570,544.980957 180.917328,544.926331 180.917328,544.926331 
	C183.714645,541.620483 186.511948,538.314575 189.654633,535.004395 
	C190.000000,535.000000 189.999329,535.000000 189.999329,535.000000 
z"/>
<path fill="#424242" opacity="1.000000" stroke="none" 
	d="
M177.989471,547.991516 
	C176.213852,550.254333 174.438217,552.517090 172.305725,554.865967 
	C171.948868,554.952026 171.837448,554.842102 171.837448,554.842102 
	C173.665131,552.575867 175.492828,550.309692 177.660522,548.021973 
	C178.000504,548.000549 177.989471,547.991516 177.989471,547.991516 
z"/>
<path fill="#424242" opacity="1.000000" stroke="none" 
	d="
M195.977478,527.982605 
	C195.193893,529.233948 194.410324,530.485352 193.311127,531.866211 
	C192.995529,531.995667 192.976105,531.978455 192.976105,531.978455 
	C193.758057,530.677429 194.540024,529.376465 195.661499,528.038574 
	C196.001007,528.001709 195.977478,527.982605 195.977478,527.982605 
z"/>
<path fill="#454545" opacity="1.000000" stroke="none" 
	d="
M925.985962,574.989258 
	C926.227661,574.515137 926.469360,574.040955 926.711060,573.566772 
	C926.668823,573.984863 926.626648,574.403015 926.296448,574.914185 
	C926.008423,575.007202 925.985901,574.989258 925.985962,574.989258 
z"/>
<path fill="#454545" opacity="1.000000" stroke="none" 
	d="
M926.020142,575.017700 
	C925.905029,575.604919 925.778198,576.181702 925.415771,576.953979 
	C925.180176,577.149597 924.910400,576.923706 924.769531,576.810547 
	C924.908997,576.209656 925.189270,575.721802 925.727722,575.111633 
	C925.985901,574.989258 926.008423,575.007202 926.020142,575.017700 
z"/>
<path fill="#444444" opacity="1.000000" stroke="none" 
	d="
M331.025604,691.021301 
	C330.691193,691.305969 330.356781,691.590637 330.022369,691.875305 
	C329.882538,691.693604 329.742706,691.511841 329.602905,691.330139 
	C329.867920,691.182190 330.132935,691.034180 330.693207,690.936890 
	C330.988464,690.987549 331.025604,691.021301 331.025604,691.021301 
z"/>
<path fill="#424242" opacity="1.000000" stroke="none" 
	d="
M197.019073,527.015869 
	C197.171509,526.716919 197.323944,526.417969 197.737244,526.058533 
	C197.998123,525.998047 198.013397,526.011108 198.013397,526.011108 
	C197.832413,526.285278 197.651428,526.559509 197.235992,526.917480 
	C197.001556,527.001221 197.019089,527.015869 197.019073,527.015869 
z"/>
<path fill="#424242" opacity="1.000000" stroke="none" 
	d="
M196.994598,526.992737 
	C196.814087,527.266663 196.640533,527.549072 196.222229,527.907104 
	C195.977478,527.982605 196.001007,528.001709 196.011063,528.013672 
	C196.179840,527.724243 196.338547,527.422913 196.758179,527.068726 
	C197.019089,527.015869 197.001556,527.001221 196.994598,526.992737 
z"/>
<path fill="#424242" opacity="1.000000" stroke="none" 
	d="
M197.990723,525.989746 
	C198.109833,525.755127 198.236359,525.528870 198.362854,525.302551 
	C198.382050,525.502686 198.401245,525.702759 198.216919,525.957031 
	C198.013397,526.011108 197.998123,525.998047 197.990723,525.989746 
z"/>
<path fill="#444444" opacity="1.000000" stroke="none" 
	d="
M330.971405,690.969116 
	C331.121246,690.652283 331.288147,690.353882 331.727356,690.027588 
	C331.999695,689.999756 332.004608,690.003479 332.004578,690.003479 
	C331.836182,690.284729 331.667786,690.565979 331.262482,690.934265 
	C331.025604,691.021301 330.988464,690.987549 330.971405,690.969116 
z"/>
<path fill="#444444" opacity="1.000000" stroke="none" 
	d="
M331.996277,689.995972 
	C332.089874,689.775513 332.186951,689.558899 332.284027,689.342285 
	C332.309143,689.516052 332.334229,689.689880 332.181946,689.933594 
	C332.004608,690.003479 331.999695,689.999756 331.996277,689.995972 
z"/>
<path fill="#424242" opacity="1.000000" stroke="none" 
	d="
M191.982666,532.984131 
	C192.139069,532.680542 192.295471,532.376953 192.713989,532.025879 
	C192.976105,531.978455 192.995529,531.995667 193.003036,532.004272 
	C192.946060,532.359924 192.767700,532.632507 192.236862,532.914429 
	C191.998245,532.998352 191.982651,532.984131 191.982666,532.984131 
z"/>
<path fill="#424242" opacity="1.000000" stroke="none" 
	d="
M166.992889,559.992126 
	C167.144455,559.683655 167.301956,559.381958 167.729248,559.039673 
	C167.999054,558.999084 168.010666,559.008789 168.010651,559.008789 
	C167.837921,559.289246 167.665192,559.569702 167.251175,559.929199 
	C167.009872,560.008118 166.998856,559.998840 166.992889,559.992126 
z"/>
<path fill="#454545" opacity="1.000000" stroke="none" 
	d="
M686.997925,663.997314 
	C687.125427,663.990662 687.255859,663.987427 687.198608,663.997192 
	C687.011047,664.010254 687.000793,664.000793 686.997925,663.997314 
z"/>
<path fill="#424242" opacity="1.000000" stroke="none" 
	d="
M170.865448,555.869873 
	C171.033859,555.588806 171.202271,555.307678 171.604065,554.934326 
	C171.837448,554.842102 171.948868,554.952026 172.003433,555.009155 
	C171.960175,555.392700 171.773026,555.655396 171.227356,555.907593 
	C170.958176,555.960754 170.865448,555.869873 170.865448,555.869873 
z"/>
<path fill="#424242" opacity="1.000000" stroke="none" 
	d="
M190.960205,533.964417 
	C191.122849,533.662048 191.285461,533.359619 191.715363,533.020691 
	C191.982651,532.984131 191.998245,532.998352 192.004150,533.005066 
	C191.842865,533.297241 191.675690,533.582703 191.250366,533.930542 
	C190.992218,533.992981 190.960205,533.964417 190.960205,533.964417 
z"/>
<path fill="#424242" opacity="1.000000" stroke="none" 
	d="
M190.000473,535.000000 
	C190.148346,534.693909 190.295746,534.387878 190.701675,534.023071 
	C190.960205,533.964417 190.992218,533.992981 191.006683,534.009033 
	C190.842102,534.300903 190.663025,534.576599 190.241638,534.926147 
	C189.999329,535.000000 190.000000,535.000000 190.000473,535.000000 
z"/>
<path fill="#424242" opacity="1.000000" stroke="none" 
	d="
M181.005539,545.010498 
	C180.947647,545.379150 180.756699,545.641907 180.231293,545.915039 
	C180.001907,546.001770 180.018311,546.015747 180.018311,546.015747 
	C180.154251,545.708679 180.290207,545.401550 180.671753,545.010376 
	C180.917328,544.926331 180.977570,544.980957 181.005539,545.010498 
z"/>
<path fill="#424242" opacity="1.000000" stroke="none" 
	d="
M178.991516,546.992615 
	C179.158005,546.696777 179.324478,546.400879 179.754639,546.060425 
	C180.018311,546.015747 180.001907,546.001770 179.995453,545.993896 
	C179.817780,546.265686 179.646591,546.545410 179.237549,546.912476 
	C178.999710,546.999817 178.991516,546.992615 178.991516,546.992615 
z"/>
<path fill="#424242" opacity="1.000000" stroke="none" 
	d="
M169.892883,556.899841 
	C170.055496,556.609680 170.218094,556.319458 170.623077,555.949585 
	C170.865448,555.869873 170.958176,555.960754 171.003342,556.008362 
	C170.968292,556.393677 170.785919,556.661987 170.235413,556.916748 
	C169.969452,556.972534 169.892883,556.899841 169.892883,556.899841 
z"/>
<path fill="#424242" opacity="1.000000" stroke="none" 
	d="
M178.005737,548.006470 
	C178.161743,547.703735 178.312500,547.395203 178.727386,547.039612 
	C178.991516,546.992615 178.999710,546.999817 179.002228,547.002808 
	C178.830017,547.286743 178.655273,547.567688 178.234985,547.920044 
	C177.989471,547.991516 178.000504,548.000549 178.005737,548.006470 
z"/>
<path fill="#424242" opacity="1.000000" stroke="none" 
	d="
M168.936646,557.942078 
	C169.090439,557.645386 169.244247,557.348694 169.645477,556.975952 
	C169.892883,556.899841 169.969452,556.972534 170.006256,557.011353 
	C169.966522,557.391174 169.783966,557.660095 169.240646,557.922302 
	C168.985916,557.987549 168.936646,557.942078 168.936646,557.942078 
z"/>
<path fill="#424242" opacity="1.000000" stroke="none" 
	d="
M156.062943,572.054016 
	C155.876114,572.323486 155.689301,572.593018 155.264664,572.942566 
	C155.026840,573.022644 154.990891,572.990417 154.973206,572.971863 
	C155.088730,572.642578 155.221924,572.331787 155.656464,571.987427 
	C155.957794,571.953857 156.062943,572.054016 156.062943,572.054016 
z"/>
<path fill="#424242" opacity="1.000000" stroke="none" 
	d="
M157.017578,571.014221 
	C156.957809,571.357300 156.787170,571.631409 156.284302,571.945251 
	C156.062943,572.054016 155.957794,571.953857 155.904602,571.898315 
	C156.053574,571.576233 156.255753,571.309631 156.725861,571.018250 
	C156.993820,570.993469 157.017578,571.014221 157.017578,571.014221 
z"/>
<path fill="#424242" opacity="1.000000" stroke="none" 
	d="
M158.003937,570.011230 
	C157.957840,570.397217 157.762909,570.654114 157.247665,570.928406 
	C157.017578,571.014221 156.993820,570.993469 156.982071,570.980469 
	C157.103210,570.665710 157.236115,570.363953 157.596283,569.948242 
	C157.823547,569.834229 157.945328,569.950684 158.003937,570.011230 
z"/>
<path fill="#424242" opacity="1.000000" stroke="none" 
	d="
M169.008713,558.012085 
	C168.851898,558.310974 168.672302,558.585327 168.251678,558.934204 
	C168.010666,559.008789 167.999054,558.999084 167.992584,558.991943 
	C168.132187,558.678650 168.278244,558.372559 168.680466,558.004272 
	C168.936646,557.942078 168.985916,557.987549 169.008713,558.012085 
z"/>
<path fill="#070707" opacity="1.000000" stroke="none" 
	d="
M990.531006,580.985535 
	C1007.515686,584.246338 1013.567810,598.500427 1014.571411,612.657227 
	C1014.639832,613.622681 1012.804688,615.621460 1011.843445,615.628601 
	C993.238647,615.768494 974.632080,615.687500 956.026062,615.615417 
	C955.586914,615.613708 955.149353,615.191833 954.729187,614.975281 
	C955.517456,597.120850 967.572876,578.330688 990.531006,580.985535 
M993.055054,602.487061 
	C995.598083,606.773132 999.094177,608.188843 1003.767456,606.294006 
	C1003.923401,597.735779 997.275818,590.554688 988.839844,589.915039 
	C978.784302,589.152649 970.013489,593.959595 969.060669,600.755310 
	C976.439758,595.598022 986.484131,595.883301 993.055054,602.487061 
z"/>
<path fill="#444444" opacity="1.000000" stroke="none" 
	d="
M992.781860,602.236938 
	C986.484131,595.883301 976.439758,595.598022 969.060669,600.755310 
	C970.013489,593.959595 978.784302,589.152649 988.839844,589.915039 
	C997.275818,590.554688 1003.923401,597.735779 1003.767456,606.294006 
	C999.094177,608.188843 995.598083,606.773132 992.781860,602.236938 
z"/>
</svg>